<?xml version="1.0" encoding="UTF-8"?><svg id="Layer_2" xmlns="http://www.w3.org/2000/svg" viewBox="0 0 28.31 28.5"><defs><style>.cls-1{fill:#1e3557;}</style></defs><g id="Vrstva_1"><g><path class="cls-1" d="M27.48,14.77c0,7.58-6.15,13.73-13.74,13.73S0,22.35,0,14.77,6.15,1.02,13.73,1.02c3.02,0,5.8,.97,8.06,2.62l-2.07,2.41c-1.7-1.16-3.75-1.84-5.96-1.84C7.92,4.21,3.18,8.95,3.18,14.79s4.74,10.58,10.58,10.58,10.58-4.74,10.58-10.58c0-1.04-.15-2.04-.43-2.99l2.16-3.07c.89,1.82,1.4,3.87,1.4,6.04Z"/><line class="cls-1" x1="21.81" y1="3.63" x2="21.8" y2="3.64"/><line class="cls-1" x1="19.73" y1="6.05" x2="19.72" y2="6.06"/><line class="cls-1" x1="26.09" y1="8.72" x2="26.08" y2="8.73"/><line class="cls-1" x1="23.92" y1="11.8" x2="23.89" y2="11.84"/><path class="cls-1" d="M27.94,2.13s-1.27,1.99-2.99,4.69c-.23,.36-.47,.74-.72,1.13-.37,.58-.76,1.19-1.15,1.8-.1,.15-.2,.31-.3,.47-2.69,4.22-5.66,8.86-6.75,10.52-2.19,3.36-4.74-1.15-4.74-1.15l-4.51-6.25c-1.04-1.39-.34-1.85-.34-1.85,0,0,.23-.47,1.62-1.51,1.39-1.04,2.18,.29,2.18,.29l3.95,4.92,.69-.82s2.91-3.43,5.91-6.89l.63-.73c.59-.68,1.18-1.35,1.75-1.99,1.4-1.58,2.64-2.95,3.42-3.74,2.8-2.83,1.36,1.1,1.36,1.1Z"/></g></g></svg>