<?xml version="1.0" encoding="UTF-8"?><svg id="Layer_2" xmlns="http://www.w3.org/2000/svg" viewBox="0 0 370.97 480.94"><defs><style>.cls-1{fill:#f9bc49;}.cls-2{fill:#f68e52;}.cls-3{fill:#e63a46;}.cls-4{fill:#fff;}.cls-5{fill:#fdba46;}.cls-6{fill:#1e3557;}.cls-7{fill:#457b9d;}</style></defs><g id="Vrstva_1"><path class="cls-4" d="M370.97,123.79v214.58l-62.9,37.57-84.73,50.62-87.18,51.56c-12.94,7.66-30.14-1.16-31.61-16.19l-21.53-220.35L61.51,21.23c-1.47-15.04,13.84-25.62,28.12-19.43l230.42,99.6,48.49,20.96,2.44,1.43Z"/><g><path class="cls-6" d="M144.33,108.92l-.08-3.48s.37-4.45-5.08-4.9c-5.45-.45-14.3,2.31-14.3,2.31,0,0-3.22,.98-.53,4.13,2.69,3.15,4.32,5.65,7.69,5.23,3.37-.41,11.13-1.35,11.13-1.35l1.18-1.94Z"/><path class="cls-2" d="M154.3,116.43s-3.45-.44-5.32-1.69c-1.87-1.26-3.09-2.31-3.09-2.31l-3.9,6.2s2.61,3.23,2.19,4.9c-.42,1.67,10.12-7.1,10.12-7.1Z"/><path class="cls-1" d="M171,370.13l-.31,5.36s-4.44,2.67-4.8-1.6l-.36-4.27,5.47,.51Z"/><path class="cls-6" d="M172.01,344.42c.22-.8,.49-1.56,.79-2.24,1.99-4.6,1.37-11.75,.05-19.32l-.84,21.56Z"/><path class="cls-1" d="M243.63,363.19l.92,5.37s-1.06,2.26-2.37,2.49-1.92,.77-2.45-1.17-1.35-5.37-1.35-5.37l5.26-1.33Z"/><path class="cls-6" d="M165.89,373.38l-13.99,6.77s-2.63,1.71-2.87,2.28,20.83-.47,20.83-.47c0,0,1.61,.47,1.99-2.6,.37-3.06-1.16-4.58-1.16-4.58,0,0-1.82,1.52-3.49-.15-1.67-1.67-1.31-1.26-1.31-1.26Z"/><path class="cls-2" d="M241.68,201.82s-8,1.6-8.59,3.5c-.59,1.9,7.2-.66,7.2-.66,0,0-8.09,7.83-7.11,9.38,.99,1.55,8.13-2.82,8.13-2.82l1.65-3.95,2.53-3.69-3.81-1.76Z"/><path class="cls-2" d="M103.59,245.73s-10.77,3.28-7.9,4.99c2.87,1.71,10.66-1.28,10.66-1.28l-2.76-3.71Z"/><path class="cls-2" d="M115.33,250.23s-2.54,5.08-6.3,4.48-5.61-.98-5.61-.98"/><path class="cls-7" d="M217.56,225.11s5.81-.04,3.68-8.96c-2.14-8.92-9.89-54.61-9.89-54.61,0,0-6.68-8.85,8.07-5.02,14.75,3.83,27.64,9.08,25.38,22.36-2.26,13.28-3.12,22.95-3.12,22.95l4.21,2.05s25.72-10.09,25.41-27.65c-.3-17.55-13.35-38.64-13.35-38.64,0,0-23.26-28.09-62.03-29.45s-53.52,17.24-53.52,17.24c0,0-29.94,18.32-31.03,44.22-1.09,25.9,5.71,18.54-2.71,48.17-8.42,29.63-10.1,26.28-8.42,29.63,1.67,3.35,9.12,4.74,9.12,4.74l11.93-7.01s18.15-18.95,20.31-25.92c2.16-6.97,2.09-22.93,2.09-22.93l11.96,40.45,61.91-11.64Z"/><path class="cls-5" d="M145.89,112.42s2.26-2.99,.07-3.48-3.02,.85-3.02,.85l-2.06-2.5s-10.55,.31-8.85,4.92c1.69,4.61,5.16,7.55,5.16,7.55,0,0,3.02,.66,4.8-1.14s3.9-6.2,3.9-6.2Z"/><path class="cls-6" d="M244.54,368.56s2.13,2.72,1.74,5.23c-.39,2.52-2.04,7.33-2.04,7.33,0,0-.65,2.5-4.52,3.03-3.87,.53-7.66,1.05-7.66,1.05,0,0,.63-3.16,2.21-3.52s3.26-2.03,3.26-2.03l1.67-11.72s1.67,1.67,3.35,1.67,2-1.05,2-1.05Z"/><path class="cls-7" d="M34.44,251.21s-7.5,17.15-2.78,26.16c4.72,9.01,7.82,12.42,9.93,14.15,2.11,1.74,11.85-11.29,10.78-16.14s-2.17-13.49-9.62-19c-7.44-5.51-8.31-5.18-8.31-5.18Z"/><path class="cls-3" d="M77.38,285.94s-9.23-16.28-19.27-17.9-14.62-1.18-17.28-.54c-2.66,.65,1.93,16.25,6.46,18.3,4.53,2.05,12.1,6.34,20.97,3.69,8.87-2.66,9.12-3.55,9.12-3.55Z"/><path class="cls-7" d="M12.62,280.49s13.71,12.74,23.77,11.26c10.06-1.48,14.3-3.28,16.64-4.7,2.34-1.42-6.74-14.91-11.68-15.51-4.94-.59-13.45-2.4-21.11,2.81-7.66,5.21-7.63,6.14-7.63,6.14Z"/><path class="cls-7" d="M11.69,309.15s16.64-8.56,18.67-18.53c2.03-9.97,1.78-14.56,1.24-17.24s-16.32,1.27-18.55,5.71-6.83,11.83-4.54,20.8c2.29,8.97,3.18,9.26,3.18,9.26Z"/><path class="cls-3" d="M24.49,258.92s-17.63,6.29-20.95,15.9C.22,284.43-.14,289.02,.04,291.75s16.34,.89,19.14-3.21c2.8-4.11,8.33-10.83,7.24-20.02-1.09-9.2-1.93-9.6-1.93-9.6Z"/><path class="cls-6" d="M59.05,268.58l-1.56-5.01s-.61-3.1-4.05-1.26c-3.44,1.84-17.75,5.59-17.75,5.59,0,0-5.69,2.93-7.41,7.96-1.72,5.03-1.98,5.77-1.98,5.77l10.62-.07s-.59-2.96,2.05-4.32c2.65-1.37,20.14-6.57,20.14-6.57l-.09-2.08Z"/><path class="cls-6" d="M289.93,194.28s6.59-1.94,4.71-4.54c-1.88-2.6-6.28-.86-6.28-.86l-24.12,7.86-42.29,13.51-164.45,53.31,1.56,5.01,230.87-74.3Z"/><path class="cls-3" d="M172.85,322.86c1.32,7.57,1.94,14.72-.05,19.32-.3,.69-.57,1.44-.79,2.24-2.81,9.58-1,25.65-1,25.65,0,0,11.92-29.8,12.42-54.46,.52-24.68-1.34-35.69,6.96-60.69,.17-.52,.33-1.04,.49-1.54-1.27-2.13-2.63-4.32-3.98-6.46l-12.05,10.95c-4.29,6.28-7.82,31.39-6.04,43.95,.87,6.14,2.78,13.78,4.05,21.04Z"/><path class="cls-3" d="M157.14,305.85c1.69,23.59,7.17,63.16,7.17,63.16l6.7,1.05s-1.81-16.07,1-25.65c.22-.8,.49-1.56,.79-2.24,1.99-4.6,1.37-11.75,.05-19.32-1.27-7.27-3.18-14.9-4.05-21.04-1.77-12.56,1.76-37.67,6.04-43.95l12.05-10.95c1.36,2.14,2.71,4.34,3.98,6.46,4.12,6.86,7.4,12.99,6.91,14.46-1.22,3.72,16.26,33.9,16.26,33.9,0,0,15.1,39.41,18.28,52.83,3.16,13.43,10.21,10.01,10.21,10.01l1.09-1.41c1.07-1.41,3.93-3.62,3.72-10.23-.23-6.61,.22-26.87-2.19-44.3-2.41-17.43-17.49-43.53-17.49-43.53l-10.09-40.03-19.77-.97-21.38,6.78-19.25,6.45s-1.71,44.88-.02,68.49Z"/><path class="cls-3" d="M24.54,265.37s-6.13,17.68-.72,26.29,8.77,11.76,11.01,13.33c2.24,1.57,10.93-12.18,9.48-16.94s-3.23-13.27-11.08-18.18c-7.85-4.91-8.69-4.51-8.69-4.51Z"/></g></g></svg>