<?xml version="1.0" encoding="UTF-8"?><svg id="Layer_2" xmlns="http://www.w3.org/2000/svg" viewBox="0 0 22.87 22.91"><defs><style>.cls-1{fill:#1e3557;}</style></defs><g id="Layer_2-2"><g id="Vrstva_1"><path class="cls-1" d="M15.86,8.6c.68,0,1.36,.01,2.04,0,.57,0,.83-.26,.83-.83v-2.99c0-.54-.26-.8-.8-.8h-3.03c-1.83,.03-3.43,1.36-3.81,3.12-.09,.33-.1,.69-.11,1.04-.01,.55,0,1.1,0,1.65v.27h-.27c-.7,0-1.4-.01-2.1,0-.46,0-.74,.28-.74,.73-.01,1.05-.01,2.1,0,3.15,0,.47,.28,.75,.75,.75h2.35v3.81h1.35v-4.41c0-.5-.27-.76-.77-.76-.77-.01-1.52,0-2.3,0v-1.9c.08,0,.16-.01,.24-.01,.65,0,1.33-.01,2,0,.56,.01,.85-.31,.84-.83-.03-.85-.01-1.69-.01-2.54,.01-1.32,.86-2.37,2.15-2.66,.19-.06,.39-.06,.59-.06,.7-.01,1.4,0,2.1,0h.16c0,.06,.01,.1,.01,.14v1.77h-2.29c-.48,.01-.8,.32-.8,.82,0,.85,.01,1.72,0,2.58-.01,.44,.26,.8,.8,.8,.68-.01,1.35-.01,2.02-.01h.26v1.91h-.23c-.69,0-1.36,0-2.04-.01-.48-.01-.83,.28-.82,.83v4.35h1.35v-3.69s0-.06,.01-.12h2.22c.62,0,.88-.25,.88-.86v-2.96c0-.56-.27-.81-.81-.81h-2.28v-1.45c.08,0,.16-.01,.23-.01h.03ZM20.54,.04s-.04-.03-.06-.04H2.41c-.33,.14-.7,.21-1.01,.38C.65,.81,.19,1.47,.04,2.32c0,.04-.02,.06-.04,.11V20.48c.14,.35,.21,.73,.4,1.05,.53,.9,1.34,1.36,2.38,1.36H11.59c.48,0,.74-.26,.74-.75V14.12c0-.5-.27-.76-.77-.76-.77-.01-1.52,0-2.3,0v-1.9c.08,0,.16-.01,.24-.01,.65,0,1.33-.01,2,0,.56,.01,.85-.31,.84-.83-.03-.85-.01-1.69-.01-2.54,.01-1.32,.86-2.37,2.15-2.66,.19-.06,.39-.06,.59-.06,.7-.01,1.4,0,2.1,0h.16c0,.06,.01,.1,.01,.14v1.77h-2.29c-.48,.01-.8,.32-.8,.82,0,.85,.01,1.72,0,2.58-.01,.44,.26,.8,.8,.8,.68-.01,1.35-.01,2.02-.01h.26v1.91h-.23c-.69,0-1.36,0-2.04-.01-.48-.01-.83,.28-.82,.83v7.94c0,.53,.26,.78,.78,.78h5.02c1.6,0,2.83-1.22,2.83-2.83V2.86c0-1.44-.92-2.55-2.34-2.81h0Zm.98,19.88c0,.8-.38,1.36-1.07,1.54-.15,.04-.31,.06-.47,.06h-4.15c-.14,0-.23-.01-.23-.19v-6.53s0-.06,.01-.12h2.22c.62,0,.88-.25,.88-.86v-2.96c0-.56-.27-.81-.81-.81h-2.28v-1.45c.08,0,.16-.01,.23-.01,.68,0,1.36,.01,2.04,0,.57,0,.83-.26,.83-.83v-2.99c0-.54-.26-.8-.8-.8h-3.03c-1.83,.03-3.43,1.36-3.81,3.12-.09,.33-.1,.69-.11,1.04-.01,.55,0,1.1,0,1.65v.27h-.27c-.7,0-1.4-.01-2.1,0-.46,0-.74,.28-.74,.73-.01,1.05-.01,2.1,0,3.15,0,.47,.28,.75,.75,.75h2.35v6.58c0,.2-.06,.26-.26,.26H2.92c-.81,0-1.35-.38-1.54-1.06-.04-.18-.05-.36-.05-.54V2.97c0-.81,.36-1.35,1.06-1.54,.16-.05,.35-.06,.53-.06H19.94c.8,0,1.35,.38,1.54,1.06,.04,.18,.05,.35,.05,.53V19.94h0Z"/></g></g></svg>