<?xml version="1.0" encoding="UTF-8"?><svg id="Layer_2" xmlns="http://www.w3.org/2000/svg" xmlns:xlink="http://www.w3.org/1999/xlink" viewBox="0 0 502.28 476.19"><defs><style>.cls-1,.cls-2{fill:none;}.cls-3{fill:url(#Nepojmenovaný_přechod_91);}.cls-4{fill:#f9bc49;}.cls-5{fill:#eaedf3;}.cls-6{fill:#f68e52;}.cls-7{fill:#e6fafa;}.cls-8{fill:#e63a46;}.cls-9{fill:#fff;}.cls-10{fill:#fdba46;}.cls-11{fill:#97a6b7;}.cls-12{fill:#abc;}.cls-13{fill:#d8dee8;}.cls-14{fill:#a8dadc;}.cls-15{fill:#1e3557;}.cls-16{fill:#457b9d;}.cls-17{fill:url(#Nepojmenovaný_přechod_91-2);}.cls-2{stroke:#457b9d;stroke-miterlimit:10;}</style><linearGradient id="Nepojmenovaný_přechod_91" x1="350.15" y1="258.19" x2="351.56" y2="188.04" gradientTransform="matrix(1, 0, 0, 1, 0, 0)" gradientUnits="userSpaceOnUse"><stop offset="0" stop-color="#a8dadc"/><stop offset=".93" stop-color="#457b9d"/></linearGradient><linearGradient id="Nepojmenovaný_přechod_91-2" x1="245.89" y1="128.13" x2="256.52" y2="218.12" xlink:href="#Nepojmenovaný_přechod_91"/></defs><g id="Vrstva_1"><g><path class="cls-7" d="M50.41,101.51C85.64,56.62,126.25,39.1,185.37,13.59,204.94,5.14,222.98-.96,245.29,.13c26.08,1.27,44.76,11.71,64.38,22.98,47.39,27.2,56.1,53.38,101.15,63.64,10.57,2.41,9.27,.78,15.95,2.78,50.32,15.07,72.49,92.04,75.2,140.25,4.26,76-36.98,131.91-48.45,147.01-5.53,7.28-83.51,106.32-209.5,99.03-93.64-5.42-151-65.94-171.74-87.82C48.87,363.29,1.85,313.68,.05,238.44-1.63,167.82,37.54,117.9,50.41,101.51Z"/><path class="cls-8" d="M158.25,165.75s3.26-24.35,10.18-39.28c6.92-14.94,16.59-17.5,28.09-17.08s25.1,9.41,27.76,28.56c2.66,19.15,2.3,23.28,2.3,23.28l-23.72-3.27-39.67,40.62s.31-19.89-4.95-32.83Z"/><path class="cls-15" d="M192.72,133.08l-23.72-3.28-39.67,40.62s.31-19.89-4.94-32.83c0,0,3.26-24.35,10.18-39.29,5.72-12.35,13.32-16.23,22.28-16.97h0c.32-.03,.64-.05,.97-.08,1.57-.09,3.18-.09,4.83-.03,11.5,.42,25.1,9.41,27.76,28.56,2.66,19.15,2.3,23.28,2.3,23.28Z"/><path class="cls-8" d="M119.88,177.85l-33.42,135.25s-32.18-11.78-30.55-30.03c1.63-18.26,7.44-16.35,8.49-19.89,1.05-3.53,10.55-13.75-11.48-34.44-22.03-20.69-20.15-32.22-13.19-45.8,6.96-13.59,14.88-7.77,15.86-36.05,.97-28.27-1.65-30.81,11.01-46.31,3.21-3.92,7.4-6.07,11.93-7.03l.08-.02c.92-.2,1.85-.34,2.79-.44h0c12.71-1.37,26.84,5.22,28.73,7.55,2.7,3.36,14.76,12.06,18.61,30.07,3.84,18.01,3.57,8.96,5.68,32.83,2.12,23.87-14.53,14.31-14.53,14.31Z"/><polygon class="cls-9" points="200.71 154.52 196.63 157.24 196.51 157.32 168.99 131.52 66.6 238.15 66.53 238.21 65.81 238.21 65.72 238.21 65.78 238.15 65.81 238.1 65.81 232.08 168.99 123.79 200.71 154.52"/><polygon class="cls-13" points="451.24 370.21 450.96 239.63 394.38 240.75 376.25 235.8 376.17 388.38 451.24 370.21"/><polygon class="cls-5" points="380.52 241.59 365.77 247.46 71.72 243.77 71.7 241.48 71.68 238.29 66.53 238.21 65.81 238.21 65.72 238.21 65.78 238.15 65.81 238.1 168.96 130.1 196.63 157.24 239.51 199.3 252.25 201.78 380.52 241.59"/><polygon class="cls-5" points="84.73 241.59 380.52 241.59 376.22 388.62 85.59 366.26 84.73 241.59"/><path class="cls-12" d="M339.25,296.62s-8.3-.49-8.02,8.35c.28,8.85-.95,62.34-.95,62.34l-14.91-.4,.47-61.94s-2.08-7.43,3.36-14.77,17.74-6.73,17.74-6.73h3.91s7.16,.75,7-7.49,.1-19.39,.1-19.39l15.22,.26-.15,22.13s1.05,12.19-10.87,16.77"/><polygon class="cls-11" points="340.14 297.63 345.26 297.72 345.25 281.63 339.73 281.5 340.14 297.63"/><polygon class="cls-11" points="314.78 301.81 314.67 306.93 333.07 306.92 333.23 301.41 314.78 301.81"/><polygon class="cls-11" points="313.55 366.3 313.45 371.42 331.52 371.41 331.67 365.89 313.55 366.3"/><polygon class="cls-11" points="339.47 243.25 372.78 242.04 372.21 261.18 339.25 262.22 339.47 243.25"/><polygon class="cls-9" points="453.4 233.07 451.5 240.05 380.62 241.46 246.69 202.54 244.38 196.66 250.37 196.78 380.36 233.85 453.4 233.07"/><polygon class="cls-3" points="329.91 199.93 452.54 232.99 379.5 233.76 249.51 196.69 329.91 199.93"/><polygon class="cls-17" points="168.99 123.79 262.09 137.14 330.77 200.16 243.52 196.82 168.99 123.79"/><g><path class="cls-9" d="M140.16,223.74v-31.09s-1.98-22.57,26.33-23.36c28.31-.79,31.14,21.79,31.14,21.79l-.54,32.79-56.92-.13Z"/><path class="cls-14" d="M144.08,219.63v-26.04s-1.66-18.9,22.05-19.56c23.71-.66,26.08,18.25,26.08,18.25l-.45,27.46-47.68-.11Z"/><rect class="cls-9" x="142.34" y="196.87" width="52.45" height="4.3"/><rect class="cls-9" x="141.48" y="194.29" width="52.45" height="4.3" transform="translate(-28.74 364.15) rotate(-90)"/></g><path class="cls-9" d="M96.22,200.17c-1.18,8.74-2.71,2.84-2.71,2.84,0,0-10.03-107.86-15-109.45l.08-.02c.92-.2,1.85-.34,2.79-.44h0c.75,4.63,15.98,98.54,14.82,107.07Z"/><polyline class="cls-1" points="81.39 93.1 78.6 93.54 78.52 93.55"/><polyline class="cls-9" points="88.2 136.38 107.16 98.57 108.54 99.38 88.45 138.04"/><polyline class="cls-9" points="88.79 156.96 55.68 143.56 55.64 145.12 88.95 158.35"/><polyline class="cls-9" points="94.41 179.76 128.74 130.72 129.13 132.52 94.56 181"/><polyline class="cls-9" points="93.52 203 39.72 182.94 38.61 185.21 91.28 205.35"/><polyline class="cls-9" points="84.88 263.72 67.2 255.13 66.42 258.44 84.9 266.09"/><path class="cls-9" d="M158.25,135.07l-1.41,1.48s-.98-54.67,0-55.21h0c.32-.03,.64-.05,.97-.08h0l.43,53.81Z"/><line class="cls-1" x1="156.84" y1="81.34" x2="157.82" y2="81.26"/><polyline class="cls-9" points="158.25 108.9 177 86.22 177.99 86.94 158.05 110.04"/><polyline class="cls-9" points="156.71 128.66 129.13 114.04 129.57 112.41 156.71 127.96"/><polyline class="cls-9" points="197.78 127.92 200.71 110.04 201.71 110.04 198.62 127.92"/><polyline class="cls-9" points="212.55 130.03 219.99 124.64 220.61 125.81 214 130.03"/><path class="cls-15" d="M235.77,150.68l.04-1.79s-.19-2.28,2.61-2.52,7.34,1.19,7.34,1.19c0,0,1.65,.5,.27,2.12-1.38,1.62-2.22,2.9-3.95,2.69s-5.71-.69-5.71-.69l-.6-1Z"/><path class="cls-6" d="M230.65,154.54s1.77-.22,2.73-.87,1.59-1.19,1.59-1.19l2,3.19s-1.34,1.66-1.13,2.52c.21,.86-5.2-3.65-5.2-3.65Z"/><path class="cls-4" d="M222.07,284.84l.16,2.75s2.28,1.37,2.47-.82l.19-2.19-2.81,.26Z"/><polyline class="cls-2" points="203.39 294.04 201.81 299.04 163.35 421.04"/><line class="cls-2" x1="136.97" y1="415.32" x2="176.73" y2="289.74"/><line class="cls-2" x1="168.99" y1="312.95" x2="196.44" y2="316.02"/><line class="cls-2" x1="162.41" y1="334.46" x2="189.32" y2="338.39"/><line class="cls-2" x1="152.91" y1="364.3" x2="179.92" y2="369.46"/><line class="cls-2" x1="144.26" y1="391.43" x2="170.8" y2="397.91"/><path class="cls-15" d="M221.56,271.64c-.11-.41-.25-.8-.4-1.15-1.02-2.36-.7-6.04-.03-9.92l.43,11.07Z"/><path class="cls-4" d="M184.77,281.28l-.47,2.76s.55,1.16,1.22,1.28,.98,.4,1.26-.6,.7-2.76,.7-2.76l-2.7-.68Z"/><path class="cls-15" d="M224.7,286.51l7.18,3.48s1.35,.88,1.47,1.17-10.7-.24-10.7-.24c0,0-.83,.24-1.02-1.33-.19-1.57,.59-2.35,.59-2.35,0,0,.93,.78,1.79-.08,.86-.86,.67-.65,.67-.65Z"/><path class="cls-6" d="M185.77,198.4s4.11,.82,4.41,1.8c.31,.98-3.7-.34-3.7-.34,0,0,4.16,4.02,3.65,4.82s-4.18-1.45-4.18-1.45l-.85-2.03-1.3-1.89,1.96-.9Z"/><path class="cls-6" d="M256.7,220.95s5.53,1.69,4.06,2.56-5.48-.66-5.48-.66l1.42-1.9Z"/><path class="cls-6" d="M250.67,223.26s1.31,2.61,3.24,2.3,2.88-.51,2.88-.51"/><path class="cls-8" d="M198.16,210.36s-2.98-.02-1.89-4.6,5.08-28.05,5.08-28.05c0,0,3.43-4.55-4.15-2.58s-14.2,4.66-13.04,11.49c1.16,6.82,1.6,11.79,1.6,11.79l-2.16,1.05s-13.21-5.18-13.05-14.2c.16-9.02,6.86-19.84,6.86-19.84,0,0,11.95-14.43,31.86-15.13s27.49,8.86,27.49,8.86c0,0,15.38,9.41,15.94,22.71,.56,13.3-2.93,9.52,1.39,24.74,4.33,15.22,5.19,13.5,4.33,15.22s-4.68,2.43-4.68,2.43l-6.13-3.6s-9.32-9.73-10.43-13.31-1.07-11.78-1.07-11.78l-6.14,20.78-31.8-5.98Z"/><path class="cls-10" d="M234.97,152.48s-1.16-1.54-.04-1.79,1.55,.44,1.55,.44l1.06-1.29s5.42,.16,4.55,2.53c-.87,2.37-2.65,3.88-2.65,3.88,0,0-1.55,.34-2.46-.59s-2-3.19-2-3.19Z"/><line class="cls-2" x1="207.97" y1="293.88" x2="208.37" y2="408.53"/><line class="cls-2" x1="240.34" y1="292.95" x2="241.6" y2="412.82"/><polygon class="cls-16" points="175.87 291.46 203.63 294.15 240.36 293.18 240.36 292.32 207.31 288.92 176.73 289.74 175.87 291.46"/><path class="cls-15" d="M184.3,284.04s-1.09,1.39-.89,2.69c.2,1.29,1.05,3.77,1.05,3.77,0,0,.33,1.28,2.32,1.55s3.94,.54,3.94,.54c0,0-.32-1.62-1.13-1.81s-1.67-1.04-1.67-1.04l-.86-6.02s-.86,.86-1.72,.86-1.03-.54-1.03-.54Z"/><path class="cls-9" d="M301.99,95.72s-.05,.04-.08,.06l.02-.06h.06Z"/><path class="cls-9" d="M325.4,83.43c.22-.98,.31-2.01,.26-3.05-.34-6.78-6.6-11.97-13.99-11.61-5.76,.28-10.5,3.87-12.15,8.64-2.33-1.73-5.06-2.34-7.46-1.39-2.76,1.1-4.41,4-4.62,7.46-4.38,1.42-7.52,5.33-7.52,9.93,0,3.91,2.27,7.32,5.63,9.13,.42,.23,.86,.43,1.32,.6h43.58c.7-.36,1.36-.79,1.96-1.29,2.35-1.93,3.84-4.77,3.84-7.93,0-5.71-4.83-10.35-10.86-10.5Zm-23.49,12.35l.02-.06h.06s-.05,.04-.08,.06Z"/><path class="cls-9" d="M286.87,103.15c-.45-.17-.89-.38-1.32-.6l1.32,.6Z"/><path class="cls-9" d="M301.93,95.72h.06s-.05,.04-.08,.06l.02-.06Z"/><path class="cls-9" d="M332.41,101.86c-.6,.49-1.26,.92-1.96,1.29l1.96-1.29Z"/><path class="cls-9" d="M408.66,143.19s.07,.06,.11,.08l-.02-.08h-.08Z"/><path class="cls-9" d="M377.67,126.92c-.29-1.3-.41-2.66-.34-4.04,.44-8.98,8.74-15.85,18.52-15.37,7.63,.38,13.91,5.12,16.09,11.44,3.09-2.3,6.7-3.1,9.88-1.84,3.66,1.45,5.84,5.3,6.11,9.87,5.79,1.88,9.96,7.06,9.96,13.15,0,5.18-3,9.69-7.46,12.09-.56,.3-1.14,.57-1.74,.8h-57.71c-.93-.48-1.8-1.05-2.6-1.7-3.12-2.55-5.09-6.31-5.09-10.5,0-7.56,6.4-13.71,14.37-13.9Zm31.1,16.35l-.02-.08h-.08s.07,.06,.11,.08Z"/><path class="cls-9" d="M428.69,153.02c.6-.23,1.18-.5,1.74-.8l-1.74,.8Z"/><path class="cls-9" d="M408.75,143.19h-.08s.07,.06,.11,.08l-.02-.08Z"/><path class="cls-9" d="M368.38,151.32c.8,.65,1.67,1.22,2.6,1.7l-2.6-1.7Z"/><path class="cls-15" d="M321.21,228.76s3.85,8.81,1.43,13.43c-2.42,4.63-4.01,6.38-5.1,7.27s-6.09-5.8-5.54-8.29,1.12-6.93,4.94-9.76,4.27-2.66,4.27-2.66Z"/><path class="cls-8" d="M330.3,230.04s3.15,9.08,.37,13.5-4.5,6.04-5.65,6.85-5.61-6.26-4.87-8.7,1.66-6.82,5.69-9.34c4.03-2.52,4.46-2.31,4.46-2.31Z"/><path class="cls-8" d="M270.16,241.6s4.74-8.36,9.9-9.2,7.51-.61,8.88-.28-.99,8.35-3.32,9.4-6.21,3.26-10.77,1.89-4.69-1.82-4.69-1.82Z"/><path class="cls-15" d="M303.42,238.8s-7.04,6.54-12.21,5.78-7.35-1.68-8.55-2.41,3.46-7.66,6-7.96,6.91-1.23,10.84,1.44,3.92,3.15,3.92,3.15Z"/><path class="cls-15" d="M313.9,244.52s-8.55-4.4-9.59-9.52c-1.04-5.12-.91-7.48-.64-8.86s8.38,.65,9.53,2.93,3.51,6.08,2.33,10.68-1.63,4.76-1.63,4.76Z"/><path class="cls-8" d="M297.32,227.72s9.05,3.23,10.76,8.17c1.71,4.94,1.89,7.29,1.8,8.7s-8.39,.46-9.83-1.65-4.28-5.56-3.72-10.28c.56-4.72,.99-4.93,.99-4.93Z"/><polygon class="cls-11" points="76.5 242.96 76.36 256.66 344.06 262.24 344.2 247.29 76.5 242.96"/><path class="cls-16" d="M279.57,232.69l.8-2.58s.31-1.59,2.08-.65c1.76,.95,9.11,2.87,9.11,2.87,0,0,2.92,1.5,3.81,4.09s1.02,2.96,1.02,2.96l-5.46-.04s.31-1.52-1.06-2.22-10.35-3.37-10.35-3.37l.04-1.07Z"/><path class="cls-16" d="M160.99,194.52s-3.38-.99-2.42-2.33,3.23-.44,3.23-.44l12.39,4.04,21.72,6.94,84.47,27.38-.8,2.58-118.58-38.16Z"/><polygon class="cls-12" points="70.53 243.43 70.11 236.43 362.52 239.59 381.38 239.6 380.86 247.12 359.69 248.15 70.53 243.43"/><path class="cls-15" d="M221.13,260.56c-.68,3.89-1,7.56,.03,9.92,.15,.35,.29,.74,.4,1.15,1.44,4.92,.52,13.17,.52,13.17,0,0-6.12-15.31-6.38-27.97-.27-12.67,.69-18.33-3.58-31.17-.09-.27-.17-.53-.25-.79,.65-1.09,1.35-2.22,2.05-3.32l6.19,5.62c2.2,3.22,4.02,16.12,3.1,22.57-.45,3.16-1.43,7.08-2.08,10.81Z"/><path class="cls-15" d="M229.19,251.83c-.87,12.12-3.68,32.44-3.68,32.44l-3.44,.54s.93-8.25-.52-13.17c-.11-.41-.25-.8-.4-1.15-1.02-2.36-.7-6.04-.03-9.92,.65-3.73,1.63-7.65,2.08-10.81,.91-6.45-.9-19.35-3.1-22.57l-6.19-5.62c-.7,1.1-1.39,2.23-2.05,3.32-2.12,3.53-3.8,6.67-3.55,7.43,.63,1.91-8.35,17.41-8.35,17.41,0,0-7.76,20.24-9.39,27.14-1.63,6.9-5.25,5.14-5.25,5.14l-.56-.72c-.55-.72-2.02-1.86-1.91-5.25,.12-3.4-.11-13.8,1.13-22.75,1.24-8.95,8.99-22.36,8.99-22.36l5.18-20.56,10.15-.5,10.98,3.48,9.89,3.31s.88,23.05,0,35.18Z"/></g></g></svg>