<?xml version="1.0" encoding="UTF-8"?><svg id="Layer_2" xmlns="http://www.w3.org/2000/svg" xmlns:xlink="http://www.w3.org/1999/xlink" viewBox="0 0 22.93 22.93"><defs><style>.cls-1{fill:#1e3557;}.cls-2{filter:url(#drop-shadow-1);}</style><filter id="drop-shadow-1" filterUnits="userSpaceOnUse"><feOffset dx="0" dy="2"/><feGaussianBlur result="blur" stdDeviation="2"/><feFlood flood-color="#496256" flood-opacity=".32"/><feComposite in2="blur" operator="in"/><feComposite in="SourceGraphic"/></filter></defs><g id="Vrstva_1"><g class="cls-2"><path class="cls-1" d="M22.79,4.48c-.53-2.09-1.82-3.49-3.84-4.2-.33-.11-.68-.16-1.02-.23-.05-.01-.1-.04-.15-.05H5.15c-.21,.04-.42,.08-.63,.13C2.42,.65,1.01,1.93,.28,3.96c-.12,.33-.16,.7-.23,1.04-.01,.05-.04,.1-.05,.15v12.63c.04,.21,.08,.42,.14,.63,.51,2.11,1.8,3.52,3.83,4.24,.33,.12,.7,.16,1.05,.24,.04,0,.09,.03,.14,.04h12.63c.21-.04,.42-.08,.63-.13,1.1-.27,2.01-.75,2.74-1.45,.65-.61,1.15-1.42,1.5-2.38,.12-.33,.16-.7,.24-1.04,0-.05,.03-.1,.04-.15V5.15c-.04-.23-.09-.45-.14-.68ZM1.97,17.78c-.02-.16-.04-.33-.04-.49,0-3.89-.01-7.79,0-11.68,0-1.8,1.46-3.41,3.24-3.64,.16-.02,.33-.04,.49-.04,3.91,0,7.82,0,11.73,0,1.74,0,3.37,1.5,3.58,3.23,.01,.16,.04,.31,.04,.47,0,3.91,.01,7.82,0,11.73,0,1.76-1.49,3.39-3.23,3.6-.24,.04-.48,.05-.73,.05h-5.59c-1.97,0-3.94,0-5.91,0-1.72-.01-3.36-1.52-3.56-3.22Z"/><path class="cls-1" d="M11.47,17.2c-3.17,0-5.73-2.56-5.74-5.72,0-3.18,2.56-5.74,5.74-5.74,3.17,0,5.73,2.57,5.72,5.74,0,3.17-2.57,5.73-5.73,5.73Zm0-1.92c2.11,0,3.81-1.7,3.8-3.81,0-2.11-1.7-3.81-3.81-3.81-2.12,0-3.82,1.71-3.82,3.82,0,2.11,1.71,3.8,3.82,3.8Z"/><path class="cls-1" d="M17.69,6.69c-.79,0-1.43-.63-1.44-1.42,0-.78,.63-1.44,1.42-1.45,.77-.01,1.44,.65,1.45,1.43,0,.78-.64,1.43-1.43,1.44Z"/></g></g></svg>