<?xml version="1.0" encoding="UTF-8"?><svg id="Layer_2" xmlns="http://www.w3.org/2000/svg" viewBox="0 0 211.53 132.99"><defs><style>.cls-1{font-family:Macho-Bold, Macho;font-size:5.63px;}.cls-1,.cls-2{fill:#e6fafa;}.cls-3{fill:#1e3557;}.cls-4{fill:#457b9d;}.cls-5{letter-spacing:-.02em;}</style></defs><g id="Vrstva_1"><path class="cls-3" d="M39.76,85.79c-5.67,1.74-10.2,.03-14.02-3.06-3.19-2.58-6.26-5.59-8.44-9-1.31-2.06-1.52-5.35,1.16-7.57,1.48-1.23,2.24-2.75,1.14-4.7-.23-.41-.44-1.13-.24-1.43,2.33-3.49-.04-4.49-2.69-5.82-1.62-.81-3.57-2.28-3.99-3.83-.68-2.52-2.34-3.44-4.27-4.32C4,44.06,.94,41.15,.16,36.05c-.26-1.7-.44-2.46,1.44-3.03,1.47-.45,2.21-4.39,1.33-5.78-1.35-2.13-1.01-2.84,1.51-2.87,2.67-.02,5.52,.69,7.97-.04,2.63-.78,4.92-2.79,7.29-4.36,2.24-1.49,4.32-3.24,6.64-4.58,.6-.35,2.13,.08,2.72,.66,2.84,2.8,5.87,3.86,9.62,1.89,.38-.2,1.11-.21,1.45,.02,3.21,2.23,5.14-.15,7.28-1.9,1.56-1.28,3.06-2.68,4.77-3.73,3.76-2.32,7.18-1.15,8.92,2.87,1.54,3.56,1.98,3.72,5.22,1.87,3.34-1.91,6.66-3.84,10-5.74,.32-.18,.69-.36,1.04-.38,5.04-.36,11.75,3.66,13.26,8.39,.75,2.35,2,3.27,4.25,3.57,2.36,.32,4.38,1.23,5.33,3.72,.24,.64,.9,1.3,1.53,1.6,3.41,1.61,6.88,3.12,10.33,4.64,.58,.26,1.29,.32,1.77,.7,2.88,2.26,5.72,3.92,9.6,1.94,1.03-.53,2.85,.69,4.12,.37,2.65-.68,6.43-4.04,8.29-7.19,3.41-5.76,8.96-8.31,14.87-10.56,2.01-.77,4.01-2.02,5.52-3.54,2.51-2.53,4.24-2.94,7.22-.73,2.44,1.81,4.82,2.84,8.11,2.18,1.63-.33,3.68,1.07,5.45,1.89,3.16,1.47,6.13,3.44,9.4,4.53,2.74,.92,4.63-.78,6.07-3.34,1.38-2.46,3.47-4.52,5.15-6.82,.88-1.2,1.92-2.47,2.26-3.86,.76-3.09,2.8-5.05,5.19-6.8,1.43-1.05,3.17-2.57,4.69-.85,1.1,1.25,2.04,3.52,1.67,4.98-.87,3.4-2.17,6.85-4.05,9.8-3.24,5.09-3.86,10.32-2.45,15.99,.82,3.29-.33,5.64-3.22,7.37-1.17,.7-2.29,1.68-3.06,2.79-1.5,2.18-2.85,3.86-6.05,3.65-2.53-.17-2.14,1.84-1.21,3.52,1.34,2.42,3.1,4.72,3.86,7.31,1.27,4.34,2.1,8.84,2.64,13.33,.2,1.65-.63,3.67-1.58,5.14-1.18,1.81-1.57,3.33-.51,5.26,1.96,3.59,2.46,8.13,6.68,10.26-.16,2.89,3.51,5.15,1.37,8.42-.15,.24,.47,1.38,.92,1.53,1.34,.44,3.52,.14,4.02,.95,1.13,1.86,1.96,4.21,1.97,6.36,0,1.99-.73,4.41-2.02,5.89-2.19,2.53-2.42,5.17-2.02,8.15,.17,1.25,.64,2.61,.31,3.73-.28,.93-1.64,2.33-2.31,2.23-3.96-.63-7.85-1.69-11.79-2.49-2.42-.49-4.87-1.04-7.32-1.09-4.65-.09-9.3,.31-13.95,.18-1.77-.05-2.38,.24-2.79,2.02-1.06,4.59-1.99,4.99-6.69,3.92-1.21-.28-2.73-.64-3.71-.16-2.15,1.06-4.11,1.69-6.45,.65-.45-.2-1.61,.3-1.93,.8-1.95,3.12-3.92,1.41-5.09-.31-2.89-4.26-6.8-6.12-11.79-6.62-1.55-.15-3.29-1.31-4.39-2.51-5.29-5.79-12.24-8.31-19.52-10.11-3.24-.8-6.54-1.15-8.58-4.28-.32-.49-.99-1.01-1.53-1.05-3.49-.26-6.56-1.17-9.26-3.7-1.28-1.2-2.73,0-3.48,1.67-3.69,8.23-4.6,8.53-12.71,4.45-1.02-.51-2.03-1.06-3.07-1.55-2.08-.97-3.33-2.28-2.35-4.79,.75-1.92,.13-2.66-2.07-2.75-1.31-.05-2.59-1.18-3.83-1.92-.73-.43-1.37-1.5-2.01-1.47-2.09,.09-2.85-.83-3.41-2.72-.27-.9-1.65-1.6-2.67-2.12-2.1-1.08-4.26-2.1-6.47-2.94-2.77-1.05-5.62-1.89-8.13-2.72Zm161.09,40.29c4.82-.39,4.78-.39,4.37-4.91-.29-3.24,.07-6.29,2.49-8.84,2.32-2.44,1.75-5.39,1.07-8.27-.68-2.91-2.96-2.43-5.16-2.53-2.64-.13-3.01-1.38-1.46-3.64,.41-.59,.8-1.67,.53-2.18-2.59-4.98-5.15-9.99-8.09-14.76-1.62-2.62-1.39-4.63,.33-6.93,.78-1.04,1.74-2.47,1.58-3.58-.66-4.75-1.4-9.53-2.71-14.13-.74-2.59-2.62-4.86-3.99-7.27-1.62-2.86-1.03-4.99,1.79-5.01,3.15-.02,4.86-1.43,6.39-3.86,.71-1.12,1.96-2.02,3.15-2.68,2.41-1.35,2.95-3.13,2.26-5.74-1.47-5.6-.92-10.95,2.3-15.97,1.36-2.12,2.47-4.45,3.38-6.81,.88-2.3,2.18-4.94-.28-6.99-1.33-1.11-4.6,1.76-6.06,4.73-1.11,2.25-2.53,4.36-3.97,6.42-1.63,2.33-3.68,4.4-5.09,6.84-2.23,3.86-6.4,5.59-10.39,3.62-2.48-1.23-4.71-2.97-7.13-4.34-1.28-.73-2.9-1.86-4.07-1.59-3.94,.92-6.98-.54-9.87-2.79-1.95-1.52-3.33-.96-4.92,.66-1.46,1.49-3.13,3.18-5.02,3.79-10.97,3.57-13.26,5.61-17.31,16.32-.23,.6-1.01,1.29-1.63,1.39-2.49,.42-5.03,.94-7.53,.84-4.84-.19-10.08,.8-13.92-3.51-.21-.24-.74-.17-1.08-.33-3.33-1.49-6.67-2.95-9.95-4.54-.75-.36-1.55-1.07-1.87-1.81-.99-2.26-2.65-3.22-5.05-3.37-2.72-.17-4.04-1.56-4.88-4.37-.66-2.19-2.63-4.46-4.64-5.65-1.9-1.13-4.86-1.73-6.91-1.1-3.62,1.11-6.92,3.31-10.33,5.09-4.45,2.32-5.67,1.89-7.74-2.8-1.29-2.92-3.32-3.7-6.1-2.12-1.64,.93-3.12,2.17-4.64,3.3-2.63,1.96-4.71,5.39-8.86,3.13-.22-.12-.69,.18-1.04,.31-3.77,1.42-7.14,.2-10.25-1.79-2.23-1.43-5.27-1.67-6.11,.63-1.47,4.02-5.23,4.47-8.04,6.33-.95,.63-2.53,.28-3.83,.39-1.76,.15-3.53,.31-5.29,.46,.19,.76,.71,1.64,.5,2.26-.67,1.95-1.23,4.17-2.56,5.61-2.04,2.19-1.74,3.98-.21,6.04,2.1,2.84,4.91,4.66,8.2,5.89,.96,.36,2.32,1.19,2.43,1.97,.51,3.41,2.93,4.76,5.6,6.13,1.03,.53,2.62,1.93,2.45,2.53-.96,3.56,.83,7.53-1.97,10.83-2.38,2.82-1.99,5.27,.62,7.97,.79,.82,1.57,1.66,2.28,2.55,3.59,4.47,8.09,7.03,13.97,7.13,3.28,.05,6.67,.09,9.79,.92,3.35,.9,6.47,2.69,9.64,4.18,.77,.36,1.4,1.04,2.05,1.63,2.33,2.1,4.6,4.27,7.01,6.27,.46,.38,1.44,.26,2.16,.18,2.65-.31,3.94,.8,2.88,3.27-1.26,2.96-.36,4.14,2.34,4.98,.94,.29,1.74,1.04,2.62,1.53,5.87,3.26,7.5,2.64,9.66-3.62,.21-.6,.32-1.5,.74-1.7,1.49-.71,3.84-2.11,4.52-1.57,2.97,2.38,6.15,3.76,9.89,4.1,.56,.05,1.29,.51,1.58,1,1.88,3.19,5.22,3.09,8.23,3.97,7.54,2.19,14.99,4.59,20.43,10.87,.96,1.1,2.78,1.97,4.24,2.04,4.45,.19,7.73,2.16,10.43,5.5,1.24,1.53,2.39,3.64,4.59,.75,.45-.59,2.1-.33,3.2-.36,1.23-.03,2.46,.13,3.69,.11,2.33-.05,4.68-.4,6.98-.19,1.7,.16,3.46,.31,3.61-1.6,.34-4.2,2.33-5.47,6.27-4.53,.8,.19,1.74-.37,2.62-.37,3.09,0,6.28,.57,9.24-.02,2.97-.59,5.41-.24,8.06,1,2.47,1.15,5.16,1.84,7.75,2.73Z"/><path class="cls-2" d="M53.35,21.16s.09,0,.13,0c.88,.09,9.54,1.18,9.58,10.07,.02,4.12-5.86,11.06-8.24,13.7-.55,.61-1.5,.67-2.12,.14-2.62-2.21-8.84-8.07-8.89-13.84-.07-7.27,6.34-10.13,9.54-10.08Z"/><path class="cls-4" d="M53.38,23.2s.07,0,.11,0c.73,.07,7.94,.98,7.97,8.37,.01,3.43-4.88,9.2-6.85,11.39-.45,.5-1.24,.56-1.76,.12-2.18-1.84-7.35-6.71-7.4-11.51-.06-6.05,5.27-8.42,7.94-8.38Z"/><circle class="cls-2" cx="53.42" cy="30.5" r="3.28"/><text class="cls-1" transform="translate(38.47 52.64)"><tspan class="cls-5" x="0" y="0">P</tspan><tspan x="3.59" y="0">ARDUBICE</tspan></text></g></svg>