<?xml version="1.0" encoding="UTF-8"?><svg id="Layer_2" xmlns="http://www.w3.org/2000/svg" xmlns:xlink="http://www.w3.org/1999/xlink" viewBox="0 0 22.91 22.88"><defs><style>.cls-1{fill:#1e3557;}.cls-2{filter:url(#drop-shadow-1);}</style><filter id="drop-shadow-1" filterUnits="userSpaceOnUse"><feOffset dx="0" dy="2"/><feGaussianBlur result="blur" stdDeviation="2"/><feFlood flood-color="#496256" flood-opacity=".32"/><feComposite in2="blur" operator="in"/><feComposite in="SourceGraphic"/></filter></defs><g id="Vrstva_1"><g class="cls-2"><path class="cls-1" d="M22.74,9.13c-.68-3.61-2.67-6.26-5.94-7.91C14.75,.19,12.56-.16,10.29,.06,7.15,.37,4.5,1.66,2.46,4.11,1.1,5.75,.33,7.64,.09,9.76c-.03,.23-.06,.45-.09,.68v1.44c.06,.43,.1,.85,.17,1.27,.4,2.29,1.42,4.26,3.07,5.89,.06,.06,.13,.12,.19,.19,.12,.11,.19,.23,.19,.4,0,.51,.03,1.03,.04,1.54,.03,.82,.43,1.37,1.19,1.67,.03,.01,.05,.04,.07,.05h.95c.73-.33,1.47-.65,2.2-.97,.1-.04,.23-.02,.34,0,2.33,.58,4.65,.54,6.92-.25,3.05-1.05,5.22-2.92,6.48-5.61,.37-.77,.65-1.61,.86-2.51,.11-.48,.14-.97,.21-1.46,0-.07,.03-.14,.04-.21v-1.44c-.06-.43-.09-.87-.18-1.3Zm-3.7,7.95c-1.41,1.72-3.25,2.75-5.42,3.2-1.63,.33-3.26,.29-4.88-.14-.48-.13-.93-.09-1.39,.11-.56,.26-1.13,.51-1.69,.75-.06,.02-.12,.04-.21,.08-.01-.26-.02-.5-.03-.73-.01-.29-.02-.58-.02-.87,0-.63-.24-1.13-.71-1.55-.18-.16-.35-.32-.51-.5-.48-.51-.89-1.08-1.23-1.71-.93-1.69-1.28-3.49-1.12-5.41,.15-1.85,.78-3.51,1.93-4.97,1.41-1.77,3.24-2.86,5.44-3.32,2.83-.58,5.52-.19,7.94,1.45,2.27,1.53,3.57,3.7,3.9,6.42,.22,1.78,.02,3.45-.65,4.98-.33,.76-.78,1.49-1.35,2.19Z"/><path class="cls-1" d="M13.26,14.47c-.29,0-.64-.14-.94-.39-.76-.59-1.52-1.18-2.28-1.77-.36-.28-.61-.28-.97,0-1.04,.8-2.08,1.6-3.12,2.4-.08,.06-.15,.12-.24,.16-.21,.1-.4,.04-.55-.11-.15-.15-.2-.33-.1-.53,.03-.07,.08-.14,.12-.21,.98-1.56,1.96-3.11,2.95-4.67,.61-.96,1.6-1.15,2.5-.46,.75,.57,1.51,1.15,2.26,1.72,.34,.26,.59,.26,.93,0,1.04-.79,2.08-1.58,3.12-2.36,.05-.04,.11-.08,.16-.12,.22-.14,.45-.13,.63,.05,.18,.17,.22,.39,.08,.61-.25,.41-.51,.82-.77,1.23-.76,1.21-1.53,2.42-2.29,3.63-.34,.54-.82,.82-1.5,.82Z"/></g></g></svg>