<?xml version="1.0" encoding="UTF-8"?><svg id="Layer_2" xmlns="http://www.w3.org/2000/svg" xmlns:xlink="http://www.w3.org/1999/xlink" viewBox="0 0 384.87 408.71"><defs><style>.cls-1,.cls-2{fill:none;}.cls-3{fill:url(#Nepojmenovaný_přechod_91);}.cls-4{fill:#f9bc49;}.cls-5{fill:#eaedf3;}.cls-6{fill:#f68e52;}.cls-7{fill:#e6fafa;}.cls-8{fill:#e63a46;}.cls-9{fill:#fff;}.cls-10{fill:#fdba46;}.cls-11{fill:#97a6b7;}.cls-12{fill:#abc;}.cls-13{fill:#d8dee8;}.cls-14{fill:#a8dadc;}.cls-15{fill:#1e3557;}.cls-16{fill:#457b9d;}.cls-17{fill:url(#Nepojmenovaný_přechod_91-2);}.cls-2{stroke:#457b9d;stroke-miterlimit:10;}</style><linearGradient id="Nepojmenovaný_přechod_91" x1="-135.82" y1="324.61" x2="-135.27" y2="297.54" gradientTransform="translate(113.97) rotate(-180) scale(1 -1)" gradientUnits="userSpaceOnUse"><stop offset="0" stop-color="#a8dadc"/><stop offset=".93" stop-color="#457b9d"/></linearGradient><linearGradient id="Nepojmenovaný_přechod_91-2" x1="-176.04" y1="274.43" x2="-171.94" y2="309.15" xlink:href="#Nepojmenovaný_přechod_91"/></defs><g id="Vrstva_1"><path class="cls-14" d="M0,0V196.16l72.45,136.42c5.47,10.3,19.91,11.14,26.53,1.55l97.13-140.55L293.22,53.03c6.63-9.59,.74-22.8-10.83-24.27L95.95,5,56.72,0H0Z"/><g><path class="cls-7" d="M365.43,264.16c-13.59-17.32-29.26-24.08-52.07-33.92-7.55-3.26-14.51-5.61-23.12-5.19-10.06,.49-17.27,4.52-24.84,8.86-18.28,10.49-21.64,20.59-39.02,24.55-4.08,.93-3.57,.3-6.15,1.07-19.41,5.81-27.97,35.51-29.01,54.11-1.64,29.32,14.27,50.89,18.69,56.71,2.13,2.81,32.22,41.02,80.82,38.2,36.13-2.09,58.25-25.44,66.25-33.88,9.03-9.53,27.17-28.67,27.86-57.69,.65-27.24-14.46-46.5-19.43-52.82Z"/><path class="cls-8" d="M323.82,288.94s-1.26-9.39-3.93-15.15c-2.67-5.76-6.4-6.75-10.84-6.59s-9.68,3.63-10.71,11.02c-1.03,7.39-.89,8.98-.89,8.98l9.15-1.26,15.31,15.67s-.12-7.67,1.91-12.67Z"/><path class="cls-15" d="M310.52,276.34l9.15-1.26,15.31,15.67s-.12-7.67,1.91-12.67c0,0-1.26-9.39-3.93-15.16-2.21-4.76-5.14-6.26-8.59-6.55h0c-.12-.01-.25-.02-.37-.03-.61-.03-1.23-.03-1.86,0-4.44,.16-9.68,3.63-10.71,11.02-1.03,7.39-.89,8.98-.89,8.98Z"/><path class="cls-8" d="M338.62,293.61l12.89,52.18s12.42-4.54,11.79-11.59c-.63-7.05-2.87-6.31-3.27-7.67-.4-1.36-4.07-5.3,4.43-13.29,8.5-7.98,7.78-12.43,5.09-17.67-2.68-5.24-5.74-3-6.12-13.91-.37-10.91,.64-11.89-4.25-17.87-1.24-1.51-2.86-2.34-4.6-2.71h-.03c-.35-.08-.71-.14-1.08-.18h0c-4.9-.53-10.36,2.01-11.08,2.91-1.04,1.3-5.7,4.65-7.18,11.6-1.48,6.95-1.38,3.46-2.19,12.67-.82,9.21,5.61,5.52,5.61,5.52Z"/><polygon class="cls-9" points="307.44 284.61 309.01 285.66 309.06 285.69 319.68 275.74 359.18 316.87 359.2 316.9 359.48 316.9 359.52 316.9 359.5 316.87 359.48 316.86 359.48 314.53 319.68 272.75 307.44 284.61"/><polygon class="cls-13" points="210.79 367.82 210.9 317.45 232.73 317.88 239.72 315.97 239.75 374.83 210.79 367.82"/><polygon class="cls-5" points="238.07 318.2 243.76 320.47 357.2 319.04 357.21 318.16 357.22 316.93 359.2 316.9 359.48 316.9 359.52 316.9 359.5 316.87 359.48 316.86 319.69 275.19 309.01 285.66 292.47 301.89 287.56 302.84 238.07 318.2"/><polygon class="cls-5" points="352.18 318.2 238.07 318.2 239.73 374.92 351.85 366.3 352.18 318.2"/><path class="cls-12" d="M254,339.43s3.2-.19,3.09,3.22,.37,24.05,.37,24.05l5.75-.15-.18-23.9s.8-2.87-1.3-5.7c-2.1-2.83-6.84-2.6-6.84-2.6h-1.51s-2.76,.29-2.7-2.89c.06-3.18-.04-7.48-.04-7.48l-5.87,.1,.06,8.54s-.4,4.7,4.19,6.47"/><polygon class="cls-11" points="253.65 339.82 251.67 339.86 251.68 333.65 253.81 333.6 253.65 339.82"/><polygon class="cls-11" points="263.44 341.43 263.48 343.41 256.38 343.41 256.32 341.28 263.44 341.43"/><polygon class="cls-11" points="263.91 366.31 263.95 368.29 256.98 368.29 256.92 366.16 263.91 366.31"/><polygon class="cls-11" points="253.91 318.84 241.06 318.37 241.28 325.76 254 326.16 253.91 318.84"/><polygon class="cls-9" points="209.96 314.92 210.69 317.61 238.04 318.15 289.7 303.14 290.59 300.87 288.28 300.91 238.14 315.21 209.96 314.92"/><polygon class="cls-3" points="257.6 302.13 210.29 314.88 238.47 315.18 288.62 300.88 257.6 302.13"/><polygon class="cls-17" points="319.68 272.75 283.76 277.91 257.26 302.22 290.92 300.93 319.68 272.75"/><g><path class="cls-9" d="M330.8,311.32v-11.99s.76-8.71-10.16-9.01-12.01,8.41-12.01,8.41l.21,12.65,21.96-.05Z"/><path class="cls-14" d="M329.29,309.73v-10.05s.64-7.29-8.51-7.55-10.06,7.04-10.06,7.04l.17,10.6,18.39-.04Z"/><rect class="cls-9" x="309.72" y="300.95" width="20.23" height="1.66" transform="translate(639.68 603.56) rotate(180)"/><rect class="cls-9" x="310.06" y="299.96" width="20.23" height="1.66" transform="translate(19.39 620.96) rotate(-90)"/></g><path class="cls-9" d="M347.75,302.22c.45,3.37,1.04,1.09,1.04,1.09,0,0,3.87-41.61,5.79-42.22h-.03c-.35-.08-.71-.14-1.08-.18h0c-.29,1.79-6.16,38.01-5.72,41.31Z"/><polyline class="cls-1" points="353.47 260.92 354.55 261.08 354.58 261.09"/><polyline class="cls-9" points="350.85 277.61 343.53 263.03 343 263.34 350.75 278.25"/><polyline class="cls-9" points="350.62 285.55 363.39 280.38 363.41 280.99 350.56 286.09"/><polyline class="cls-9" points="348.45 294.35 335.21 275.43 335.06 276.13 348.39 294.83"/><polyline class="cls-9" points="348.79 303.32 369.55 295.58 369.98 296.45 349.66 304.22"/><polyline class="cls-9" points="352.13 326.74 358.95 323.43 359.25 324.7 352.12 327.65"/><path class="cls-9" d="M323.82,277.11l.54,.57s.38-21.09,0-21.3h0c-.12-.01-.25-.02-.37-.03h0l-.17,20.76Z"/><line class="cls-1" x1="324.37" y1="256.38" x2="323.99" y2="256.35"/><polyline class="cls-9" points="323.82 267.01 316.59 258.26 316.21 258.54 323.9 267.45"/><polyline class="cls-9" points="324.42 274.64 335.06 269 334.88 268.37 324.42 274.36"/><polyline class="cls-9" points="308.57 274.35 307.44 267.45 307.05 267.45 308.25 274.35"/><polyline class="cls-9" points="302.87 275.17 300 273.08 299.76 273.53 302.31 275.17"/><path class="cls-15" d="M293.91,283.13l-.02-.69s.07-.88-1.01-.97-2.83,.46-2.83,.46c0,0-.64,.19-.11,.82s.86,1.12,1.52,1.04,2.2-.27,2.2-.27l.23-.38Z"/><path class="cls-6" d="M295.89,284.62s-.68-.09-1.05-.34-.61-.46-.61-.46l-.77,1.23s.52,.64,.43,.97,2-1.41,2-1.41Z"/><path class="cls-4" d="M299.2,334.89l-.06,1.06s-.88,.53-.95-.32l-.07-.85,1.08,.1Z"/><polyline class="cls-2" points="306.41 338.43 307.02 340.36 321.85 387.43"/><line class="cls-2" x1="332.03" y1="385.23" x2="316.69" y2="336.78"/><line class="cls-2" x1="319.68" y1="345.73" x2="309.09" y2="346.92"/><line class="cls-2" x1="322.22" y1="354.03" x2="311.84" y2="355.54"/><line class="cls-2" x1="325.88" y1="365.54" x2="315.46" y2="367.53"/><line class="cls-2" x1="329.22" y1="376.01" x2="318.98" y2="378.51"/><path class="cls-15" d="M299.4,329.79c.04-.16,.1-.31,.16-.44,.39-.91,.27-2.33,0-3.83l-.17,4.27Z"/><path class="cls-4" d="M313.59,333.51l.18,1.06s-.21,.45-.47,.49-.38,.15-.49-.23-.27-1.06-.27-1.06l1.04-.26Z"/><path class="cls-15" d="M298.19,335.53l-2.77,1.34s-.52,.34-.57,.45,4.13-.09,4.13-.09c0,0,.32,.09,.39-.51s-.23-.91-.23-.91c0,0-.36,.3-.69-.03s-.26-.25-.26-.25Z"/><path class="cls-6" d="M313.2,301.54s-1.58,.32-1.7,.69,1.43-.13,1.43-.13c0,0-1.6,1.55-1.41,1.86s1.61-.56,1.61-.56l.33-.78,.5-.73-.76-.35Z"/><path class="cls-6" d="M285.84,310.24s-2.13,.65-1.56,.99,2.11-.25,2.11-.25l-.55-.73Z"/><path class="cls-6" d="M288.17,311.13s-.5,1.01-1.25,.89-1.11-.19-1.11-.19"/><path class="cls-8" d="M308.42,306.15s1.15,0,.73-1.78c-.42-1.77-1.96-10.82-1.96-10.82,0,0-1.32-1.75,1.6-.99s5.48,1.8,5.03,4.43c-.45,2.63-.62,4.55-.62,4.55l.83,.41s5.1-2,5.04-5.48c-.06-3.48-2.65-7.66-2.65-7.66,0,0-4.61-5.57-12.29-5.84-7.68-.27-10.6,3.42-10.6,3.42,0,0-5.93,3.63-6.15,8.76s1.13,3.67-.54,9.54-2,5.21-1.67,5.87,1.81,.94,1.81,.94l2.36-1.39s3.6-3.75,4.03-5.14c.43-1.38,.41-4.54,.41-4.54l2.37,8.02,12.27-2.31Z"/><path class="cls-10" d="M294.22,283.82s.45-.59,.01-.69-.6,.17-.6,.17l-.41-.5s-2.09,.06-1.75,.98,1.02,1.5,1.02,1.5c0,0,.6,.13,.95-.23s.77-1.23,.77-1.23Z"/><line class="cls-2" x1="304.64" y1="338.37" x2="304.49" y2="382.6"/><line class="cls-2" x1="292.15" y1="338.02" x2="291.67" y2="384.26"/><polygon class="cls-16" points="317.02 337.44 306.31 338.48 292.14 338.1 292.14 337.77 304.9 336.46 316.69 336.78 317.02 337.44"/><path class="cls-15" d="M313.77,334.58s.42,.54,.34,1.04-.41,1.45-.41,1.45c0,0-.13,.5-.9,.6s-1.52,.21-1.52,.21c0,0,.12-.63,.44-.7s.65-.4,.65-.4l.33-2.32s.33,.33,.66,.33,.4-.21,.4-.21Z"/><path class="cls-9" d="M268.37,261.93s.02,.02,.03,.02v-.02h-.03Z"/><path class="cls-9" d="M259.34,257.19c-.08-.38-.12-.77-.1-1.18,.13-2.62,2.55-4.62,5.4-4.48,2.22,.11,4.05,1.49,4.69,3.33,.9-.67,1.95-.9,2.88-.54,1.06,.42,1.7,1.54,1.78,2.88,1.69,.55,2.9,2.06,2.9,3.83,0,1.51-.88,2.82-2.17,3.52-.16,.09-.33,.16-.51,.23h-16.81c-.27-.14-.53-.31-.76-.5-.91-.74-1.48-1.84-1.48-3.06,0-2.2,1.87-3.99,4.19-4.05Zm9.06,4.76v-.02h-.03s.02,.02,.03,.02Z"/><path class="cls-9" d="M274.2,264.79c.17-.07,.34-.15,.51-.23l-.51,.23Z"/><path class="cls-9" d="M268.39,261.93h-.02s.02,.02,.03,.02v-.02Z"/><path class="cls-9" d="M256.63,264.3c.23,.19,.49,.36,.76,.5l-.76-.5Z"/><path class="cls-9" d="M227.22,280.24s-.03,.02-.04,.03v-.03h.04Z"/><path class="cls-9" d="M239.17,273.96c.11-.5,.16-1.03,.13-1.56-.17-3.46-3.37-6.12-7.14-5.93-2.94,.15-5.36,1.98-6.21,4.41-1.19-.89-2.59-1.2-3.81-.71-1.41,.56-2.25,2.04-2.36,3.81-2.24,.72-3.84,2.72-3.84,5.07,0,2,1.16,3.74,2.88,4.66,.22,.12,.44,.22,.67,.31h22.26c.36-.19,.7-.41,1-.66,1.2-.98,1.96-2.43,1.96-4.05,0-2.92-2.47-5.29-5.54-5.36Zm-12,6.31v-.03h.04s-.03,.02-.04,.03Z"/><path class="cls-9" d="M219.49,284.03c-.23-.09-.46-.19-.67-.31l.67,.31Z"/><path class="cls-9" d="M227.18,280.24h.03s-.03,.02-.04,.03v-.03Z"/><path class="cls-9" d="M242.76,283.38c-.31,.25-.64,.47-1,.66l1-.66Z"/><path class="cls-15" d="M260.95,313.25s-1.49,3.4-.55,5.18,1.55,2.46,1.97,2.8,2.35-2.24,2.14-3.2-.43-2.67-1.91-3.76c-1.47-1.09-1.65-1.03-1.65-1.03Z"/><path class="cls-8" d="M257.45,313.74s-1.22,3.5-.14,5.21c1.07,1.71,1.74,2.33,2.18,2.64s2.17-2.41,1.88-3.36-.64-2.63-2.2-3.6-1.72-.89-1.72-.89Z"/><path class="cls-8" d="M280.65,318.21s-1.83-3.23-3.82-3.55-2.9-.23-3.42-.11,.38,3.22,1.28,3.63,2.4,1.26,4.16,.73,1.81-.7,1.81-.7Z"/><path class="cls-15" d="M267.82,317.13s2.72,2.52,4.71,2.23,2.83-.65,3.3-.93-1.34-2.95-2.31-3.07-2.66-.48-4.18,.56-1.51,1.22-1.51,1.22Z"/><path class="cls-15" d="M263.77,319.33s3.3-1.7,3.7-3.67c.4-1.97,.35-2.89,.25-3.42s-3.23,.25-3.68,1.13-1.35,2.34-.9,4.12,.63,1.83,.63,1.83Z"/><path class="cls-8" d="M270.17,312.85s-3.49,1.25-4.15,3.15-.73,2.81-.69,3.35,3.24,.18,3.79-.64,1.65-2.15,1.43-3.97-.38-1.9-.38-1.9Z"/><polygon class="cls-11" points="355.36 318.73 355.41 324.01 252.14 326.17 252.08 320.4 355.36 318.73"/><path class="cls-16" d="M277.02,314.77l-.31-.99s-.12-.61-.8-.25-3.52,1.11-3.52,1.11c0,0-1.13,.58-1.47,1.58s-.39,1.14-.39,1.14h2.11s-.12-.6,.41-.87,3.99-1.3,3.99-1.3l-.02-.41Z"/><path class="cls-16" d="M322.76,300.04s1.31-.38,.93-.9-1.24-.17-1.24-.17l-4.78,1.56-8.38,2.68-32.59,10.56,.31,.99,45.75-14.72Z"/><polygon class="cls-12" points="357.66 318.91 357.82 316.21 245.02 317.43 237.74 317.43 237.94 320.34 246.11 320.73 357.66 318.91"/><path class="cls-15" d="M299.56,325.52c.26,1.5,.38,2.92,0,3.83-.06,.14-.11,.29-.16,.44-.56,1.9-.2,5.08-.2,5.08,0,0,2.36-5.9,2.46-10.79,.1-4.89-.27-7.07,1.38-12.02,.03-.1,.07-.21,.1-.31-.25-.42-.52-.86-.79-1.28l-2.39,2.17c-.85,1.24-1.55,6.22-1.2,8.71,.17,1.22,.55,2.73,.8,4.17Z"/><path class="cls-15" d="M296.45,322.15c.34,4.67,1.42,12.52,1.42,12.52l1.33,.21s-.36-3.18,.2-5.08c.04-.16,.1-.31,.16-.44,.39-.91,.27-2.33,0-3.83-.25-1.44-.63-2.95-.8-4.17-.35-2.49,.35-7.46,1.2-8.71l2.39-2.17c.27,.42,.54,.86,.79,1.28,.82,1.36,1.47,2.57,1.37,2.87-.24,.74,3.22,6.72,3.22,6.72,0,0,2.99,7.81,3.62,10.47,.63,2.66,2.02,1.98,2.02,1.98l.22-.28c.21-.28,.78-.72,.74-2.03-.05-1.31,.04-5.32-.43-8.78-.48-3.45-3.47-8.62-3.47-8.62l-2-7.93-3.92-.19-4.24,1.34-3.81,1.28s-.34,8.89,0,13.57Z"/></g></g></svg>