<?xml version="1.0" encoding="UTF-8"?><svg id="Layer_2" xmlns="http://www.w3.org/2000/svg" viewBox="0 0 354.88 480.94"><defs><style>.cls-1{fill:none;}.cls-2{fill:#f9bc49;}.cls-3{fill:#f68e52;}.cls-4{fill:#e63a46;}.cls-5{fill:#fff;}.cls-6{fill:#fdba46;}.cls-7{fill:#1e3557;}.cls-8{fill:#457b9d;}</style></defs><g id="Vrstva_1"><path class="cls-5" d="M0,123.79v214.58l62.9,37.57,84.73,50.62,87.18,51.56c12.94,7.66,30.14-1.16,31.61-16.19l21.53-220.35,21.52-220.35c1.47-15.04-13.84-25.62-28.12-19.43L50.93,101.4,2.44,122.36l-2.44,1.43Z"/><g><polyline class="cls-1" points="135.11 67.49 137.91 67.93 137.99 67.95"/><path class="cls-7" d="M152.34,143.75l-1.4-3.19s-2.21-3.87,2.53-6.59c4.74-2.71,13.94-3.95,13.94-3.95,0,0,3.33-.47,2.23,3.52-1.1,3.99-1.53,6.94-4.76,7.99s-10.65,3.48-10.65,3.48l-1.89-1.26Z"/><path class="cls-3" d="M146.48,154.77s2.94-1.86,4.1-3.78,1.83-3.41,1.83-3.41l6.15,3.97s-1,4.03,.08,5.37c1.08,1.34-12.17-2.16-12.17-2.16Z"/><path class="cls-2" d="M238.59,391.75l2.54,4.72s5.16,.54,3.68-3.48l-1.48-4.02-4.74,2.78Z"/><path class="cls-7" d="M226.82,368.87c-.54-.64-1.1-1.21-1.66-1.7-3.75-3.33-6.21-10.07-8.21-17.49l9.87,19.19Z"/><path class="cls-2" d="M169.85,416.16l1.44,5.26s1.92,1.6,3.2,1.26,2.06-.11,1.72-2.09c-.34-1.99-1.04-5.44-1.04-5.44l-5.33,1.02Z"/><path class="cls-4" d="M244.6,392.53l15.54,.22s3.1,.44,3.57,.85-19.08,8.38-19.08,8.38c0,0-1.26,1.1-2.9-1.51-1.63-2.62-.89-4.64-.89-4.64,0,0,2.29,.61,3.1-1.61,.81-2.22,.66-1.7,.66-1.7Z"/><path class="cls-3" d="M103.39,269.1s7.92-1.93,9.27-.46c1.34,1.47-6.8,2.44-6.8,2.44,0,0,10.65,3.67,10.41,5.5-.24,1.83-8.56,.88-8.56,.88l-3.16-2.88-3.85-2.27,2.71-3.21Z"/><path class="cls-3" d="M247.1,250.51s11.15-1.58,9.27,1.18c-1.88,2.76-10.2,3.35-10.2,3.35l.94-4.53Z"/><path class="cls-3" d="M238.36,259.55s4.45,3.53,7.61,1.39,4.67-3.26,4.67-3.26"/><path class="cls-8" d="M135.09,280s-5.28,2.42-7.12-6.57-14.13-53.67-14.13-53.67c0,0,2.31-10.84-9.44-1.14-11.74,9.71-21.21,19.92-13.55,30.99,7.67,11.08,12.53,19.48,12.53,19.48l-2.94,3.64s-27.57,1.73-34.72-14.31c-7.15-16.04-4.23-40.66-4.23-40.66,0,0,9.21-35.29,43.76-52.91,34.55-17.62,55.79-7,55.79-7,0,0,34.88,3.95,46.82,26.96,11.94,23.01,2.66,19.22,22.82,42.51,20.16,23.29,20.26,19.55,20.16,23.29-.1,3.74-6.26,8.15-6.26,8.15l-13.78-1.31s-24.46-9.5-29.37-14.9c-4.91-5.4-11.59-19.9-11.59-19.9l6.26,41.72-61.02,15.63Z"/><path class="cls-6" d="M152.41,147.58s-3.31-1.75-1.53-3.12c1.78-1.37,3.1-.5,3.1-.5l.81-3.14s9.69-4.18,10.1,.72c.41,4.89-1.49,9.02-1.49,9.02,0,0-2.46,1.87-4.83,1s-6.15-3.97-6.15-3.97Z"/><path class="cls-4" d="M171.29,421.41s-.78,3.36,.64,5.48c1.42,2.12,4.95,5.78,4.95,5.78,0,0,1.65,1.99,5.38,.83,3.73-1.16,7.39-2.28,7.39-2.28,0,0-1.9-2.6-3.49-2.25-1.59,.35-3.81-.46-3.81-.46l-6.47-9.91s-.81,2.22-2.33,2.93-2.26-.11-2.26-.11Z"/><path class="cls-7" d="M56.48,282.66s-6.79,1.03-6.19-2.12,5.33-3.43,5.33-3.43l25.18-3.07,44.04-5.63,171.57-21.21,.71,5.2-240.64,30.27Z"/><path class="cls-7" d="M216.94,349.69c2,7.42,4.46,14.16,8.21,17.49,.56,.49,1.12,1.06,1.66,1.7,6.6,7.49,11.75,22.82,11.75,22.82,0,0-23.4-21.97-34.28-44.1-10.9-22.14-13.88-32.91-31.97-52.05-.37-.4-.74-.8-1.09-1.19,.25-2.46,.56-5.03,.88-7.54l15.55,4.83c6.54,3.88,20.36,25.14,24.06,37.27,1.81,5.94,3.31,13.66,5.22,20.78Z"/><path class="cls-7" d="M223.98,327.63c8.44,22.09,20.21,60.27,20.21,60.27l-5.62,3.79s-5.16-15.33-11.75-22.82c-.54-.64-1.1-1.21-1.66-1.7-3.75-3.33-6.21-10.07-8.21-17.49-1.92-7.12-3.42-14.85-5.22-20.78-3.7-12.13-17.52-33.39-24.06-37.27l-15.55-4.83c-.32,2.52-.62,5.08-.88,7.54-.83,7.96-1.21,14.9-.15,16.03,2.68,2.85-.4,37.59-.4,37.59,0,0,2.98,42.1,5.77,55.61,2.81,13.51-5.02,13.39-5.02,13.39l-1.58-.81c-1.57-.82-5.09-1.61-7.69-7.7-2.58-6.09-11.56-24.26-16.74-41.07-5.18-16.81-2.55-46.84-2.55-46.84l-7.77-40.54,17.51-9.24,22.24-2.89,20.17-2.3s20.52,39.95,28.97,62.06Z"/><path class="cls-7" d="M315.8,249.45l-.45-3.61c-.11-.89-.89-1.55-1.79-1.5l-22.69,1.2c-.99,.05-1.73,.94-1.61,1.92l.85,6.83c.12,.99,1.06,1.66,2.03,1.47l22.29-4.41c.88-.17,1.48-1,1.37-1.89Z"/><polygon class="cls-7" points="314.87 246.71 315.33 248.21 315.64 248.18 327.4 247.11 330.79 219.14 341.89 217.76 342.74 223.31 342.76 223.46 344.02 223.31 343.99 223.13 342.97 216.37 330.02 217.99 325.93 245.41 315.45 246.64 314.87 246.71"/><path class="cls-4" d="M337.79,230.09l4.1,32.81c.42,3.37,3.48,5.75,6.85,5.33l.76-.09c.93-.12,1.78-.43,2.52-.91,.84-.53,1.54-1.26,2.03-2.11,0,0-1.92-2.89-3.92-3.89s-3-7-2-7,0-7-2-7-3-7-3-7c0,0-2-5-1-8s-2.77-6.88-2.77-6.88l-.17,.04c-1.07,1.26-1.62,2.94-1.4,4.7Z"/><path class="cls-7" d="M339.36,225.35s3.77,3.88,2.77,6.88,1,8,1,8c0,0,1,7,3,7s3,7,2,7,0,6,2,7,3.92,3.89,3.92,3.89c.65-1.12,.95-2.45,.78-3.83l-4.09-32.82c-.42-3.33-3.43-5.7-6.75-5.34l.03,.18-1.26,.15-.02-.15c-1.44,.26-2.68,1.02-3.55,2.08l.17-.04Z"/><path class="cls-7" d="M342.74,223.31l.02,.15,1.26-.15-.03-.18s-.07,.01-.1,.01l-.77,.1c-.13,.02-.26,.04-.38,.07Z"/><path class="cls-4" d="M353.67,265.7s-2.54,2.53-1.54,5.53,0,4,0,4c0,0-1,1-1-1s0-2-1-3-2-3-2-3c0,0-1,2,0,3s-1,3-1,3c0,0-1,0-1-1s1-2,1-3-2-3-2-3"/></g></g></svg>