<?xml version="1.0" encoding="UTF-8"?><svg id="Layer_2" xmlns="http://www.w3.org/2000/svg" viewBox="0 0 323.66 480.94"><defs><style>.cls-1{fill:none;}.cls-2{fill:#f9bc49;}.cls-3{fill:#f68e52;}.cls-4{fill:#e63a46;}.cls-5{fill:#fff;}.cls-6{fill:#fdba46;}.cls-7{fill:#1e3557;}.cls-8{fill:#457b9d;}</style></defs><g id="Vrstva_1"><path class="cls-5" d="M323.66,123.79v214.58l-62.9,37.57-84.73,50.62-87.18,51.56c-12.94,7.66-30.14-1.16-31.61-16.19l-21.53-220.35L14.19,21.23C12.72,6.19,28.03-4.39,42.31,1.8l230.42,99.6,48.49,20.96,2.44,1.43Z"/><g><path class="cls-2" d="M95.17,382.85l-1.42,7.09s-4.95,2.88-4.41-2.87l.53-5.75,5.3,1.53Z"/><path class="cls-8" d="M104.06,338.03c.12,7.77-.38,15.01-3.07,19.3-.41,.64-.79,1.35-1.13,2.12-4.28,9.14-5.01,25.48-5.01,25.48,0,0,16.44-27.94,20.8-52.51,4.38-24.58,4.26-35.88,16.38-59.58,.25-.49,.49-.99,.72-1.46-.92-2.32-1.92-4.72-2.93-7.08l-13.62,9.08c-5.22,5.61-12.64,30.16-12.85,42.99-.1,6.28,.59,14.2,.71,21.66Z"/><path class="cls-8" d="M91.2,318.6c-2.02,23.84-2.81,64.24-2.81,64.24l6.45,2.09s.73-16.34,5.01-25.48c.34-.77,.72-1.48,1.13-2.12,2.69-4.29,3.2-11.53,3.07-19.3-.12-7.46-.81-15.38-.71-21.66,.21-12.82,7.63-37.38,12.85-42.99l13.62-9.08c1,2.35,2,4.75,2.93,7.08,2.99,7.5,5.28,14.13,4.57,15.53-1.79,3.53,10.75,36.4,10.75,36.4,0,0,8.75,41.73,9.79,55.64,1.02,13.91,8.52,11.59,8.52,11.59l1.3-1.24c1.28-1.24,4.45-3.01,5.27-9.65,.8-6.65,4.42-26.82,4.77-44.61,.35-17.79-10.47-46.21-10.47-46.21l-3.71-41.57-19.38-4.03-22.18,3.47-20.03,3.46s-8.71,44.6-10.74,68.45Z"/><path class="cls-7" d="M108.89,122.8l.46-3.45s1.05-4.34-4.26-5.63c-5.31-1.29-14.48,.07-14.48,.07,0,0-3.33,.47-1.16,4,2.17,3.53,3.4,6.25,6.79,6.36,3.39,.11,11.2,.39,11.2,.39l1.46-1.74Z"/><path class="cls-3" d="M117.58,131.76s-3.34-.97-4.99-2.5c-1.65-1.53-2.7-2.76-2.7-2.76l-4.81,5.53s2.08,3.6,1.41,5.18c-.67,1.59,11.09-5.45,11.09-5.45Z"/><path class="cls-2" d="M167.66,389.37l.07,5.45s-1.4,2.07-2.73,2.1c-1.33,.03-2.01,.47-2.24-1.53-.23-2-.51-5.51-.51-5.51l5.4-.5Z"/><path class="cls-7" d="M89.28,387.41l-14.87,4.53s-2.86,1.28-3.19,1.81,20.66,2.76,20.66,2.76c0,0,1.52,.71,2.36-2.26,.84-2.97-.43-4.71-.43-4.71,0,0-2.03,1.22-3.43-.69-1.39-1.91-1.1-1.45-1.1-1.45Z"/><path class="cls-3" d="M190.7,229.65s-8.15,.34-9.03,2.13c-.88,1.79,7.21,.46,7.21,.46,0,0-9.21,6.48-8.47,8.17,.74,1.69,8.47-1.53,8.47-1.53l2.24-3.65,3.07-3.25-3.49-2.33Z"/><path class="cls-3" d="M47.48,251.66s-11.15,1.58-8.57,3.71c2.58,2.13,10.73,.38,10.73,.38l-2.16-4.09Z"/><path class="cls-3" d="M55.38,256.92s-3.3,4.63-6.92,3.45c-3.62-1.18-5.39-1.84-5.39-1.84"/><path class="cls-4" d="M163.27,248.91s5.75,.86,5.02-8.28c-.73-9.14-1.32-55.48-1.32-55.48,0,0-5.23-9.78,8.75-3.71,13.98,6.07,25.91,13.25,21.62,26.02-4.29,12.77-6.63,22.19-6.63,22.19l3.84,2.68s26.97-5.99,29.39-23.38c2.42-17.39-7.21-40.24-7.21-40.24,0,0-18.64-31.35-56.72-38.69s-55.54,8.75-55.54,8.75c0,0-32.41,13.47-37.5,38.89-5.09,25.42,2.77,19.2-10.13,47.17-12.91,27.97-14.04,24.4-12.91,27.97,1.14,3.57,8.28,6.09,8.28,6.09l12.87-5.08s20.86-15.91,24.08-22.46c3.21-6.55,5.61-22.33,5.61-22.33l5.56,41.82,62.96-1.92Z"/><path class="cls-6" d="M109.89,126.5s2.7-2.6,.61-3.42-3.11,.38-3.11,.38l-1.65-2.79s-10.47-1.32-9.51,3.49c.96,4.82,3.93,8.26,3.93,8.26,0,0,2.88,1.12,4.92-.38,2.03-1.5,4.81-5.53,4.81-5.53Z"/><path class="cls-7" d="M167.73,394.82s1.68,3.01,.91,5.44c-.78,2.43-3.15,6.93-3.15,6.93,0,0-1.03,2.37-4.93,2.29-3.91-.08-7.73-.14-7.73-.14,0,0,1.11-3.03,2.73-3.13s3.53-1.5,3.53-1.5l3.47-11.32s1.39,1.91,3.05,2.17,2.14-.73,2.14-.73Z"/><path class="cls-7" d="M30.09,232.52l3.83,3.04,2.59,1.98s1.32,.58,.4,2.25c-.92,1.67-2.63,6.84,1.24,11.73,3.87,4.89,8.3,1.85,12.25,7.73,3.95,5.87-1.57,9-3.84,8.14-2.26-.86-5.89-4.48-8.38-7.9-2.49-3.41-6.99-5.04-10.29-3.06-3.3,1.98-3.06,3.32-3.08,3.22s-.29,1.01-2.4-.31c-.83-.52-1.33-.83-1.64-1.02-.08-.05-.14-.09-.19-.12-.03-.02-.06-.04-.08-.05-.02-.01-.03-.02-.05-.03l-.03-.02s-.05-.03-.07-.04h-.02l-.02-.02h0l-4.62-3.67,14.4-21.83Zm1.16,7.44c.08,0,.17,0,.25-.02,.2-.04,.39-.12,.55-.24,.31-.23,.53-.59,.61-1,.04-.21,.04-.44,0-.67-.02-.1-.04-.19-.07-.28-.26-.75-.96-1.23-1.67-1.1-.8,.15-1.32,1-1.16,1.91,.14,.81,.78,1.39,1.49,1.41Zm-2.98,4.92s.06,0,.09-.01c.8-.15,1.32-1,1.16-1.91,0-.03-.01-.07-.02-.1-.2-.86-.95-1.43-1.72-1.29-.8,.15-1.32,1-1.16,1.91s.89,1.48,1.66,1.4Zm-3.6,5.55c.1-.02,.2-.05,.3-.09,.53-.24,.88-.81,.89-1.47,0-.12,0-.23-.03-.35-.16-.91-.94-1.53-1.74-1.38s-1.32,1-1.16,1.91c.16,.91,.94,1.53,1.74,1.38Zm-3.26,5.37c.1-.02,.2-.05,.3-.09,.53-.24,.88-.81,.89-1.47,0-.11,0-.23-.03-.35-.16-.91-.94-1.53-1.74-1.38s-1.32,1-1.16,1.91c.16,.91,.94,1.53,1.74,1.38Z"/><path class="cls-8" d="M15.37,220.75l-.32,.52-4.36,7.09s-1.51,2.77,.01,4.34c1.52,1.56,2.09,2.11,2.09,2.11,0,0,.89,1.24-.28,1.67-1.06,.39-2.31-.26-2.52-.38l3.63,2.79s1.27,1.29,.56,2.07c-.72,.78-2.26,.19-2.26,.19l-1.5-1.1c.27,.26,1.46,1.52,.69,2.44-.87,1.02-2.3-.02-2.3-.02l-2.57-2.13s-2.44-.76-3.69,1.31c-.26,.44-.47,.78-.63,1.06l-.26,.42,13.57,10.76,14.41-21.82-14.27-11.32Z"/><path class="cls-7" d="M10.69,228.36s-1.51,2.77,.01,4.34c1.52,1.56,2.09,2.11,2.09,2.11,0,0,.89,1.24-.28,1.67-1.06,.39-2.31-.26-2.52-.38l3.63,2.79s1.27,1.29,.56,2.07c-.72,.78-2.26,.19-2.26,.19l-1.5-1.1c.27,.26,1.46,1.52,.69,2.44-.87,1.02-2.3-.02-2.3-.02l-2.57-2.13s-2.44-.76-3.69,1.31c-.26,.44-.47,.78-.63,1.06l-.26,.42-.84-.67s-.04-.03-.05-.04c-.8-.67-1.01-1.91-.47-2.82l11.61-19.14c.55-.92,1.68-1.12,2.52-.45l.94,.74-.32,.52-4.36,7.09Z"/><path class="cls-7" d="M163.65,253.06c.02-.25,.05-.51,.08-.76,1.42-11.28,11.78-19.98,24.25-19.87,12.24,.11,22.28,8.67,23.81,19.67,.02,.11,.03,.23,.05,.34,.03,.22,.05,.45,.07,.67,.02,.18,.03,.36,.04,.54,0,.15,.02,.29,.02,.45l-1.73-.02c-.07-.45-.16-.9-.26-1.35-.05-.22-.1-.45-.16-.67-.49-1.87-1.21-3.65-2.13-5.3l-3.18-4.37c-4.11-4.42-10-7.22-16.55-7.28-10.68-.1-19.7,7.09-22.26,16.89-.06,.21-.11,.43-.16,.65-.11,.47-.2,.95-.28,1.43h-1.68c.01-.33,.03-.68,.07-1.02Z"/><polyline class="cls-1" points="212.02 223.94 211.98 223.95 209.99 224.52"/><line class="cls-1" x1="156.45" y1="240.42" x2="158.37" y2="239.84"/><rect class="cls-7" x="183.13" y="231.36" width="9.33" height="5.27" rx="2.63" ry="2.63" transform="translate(373.46 469.68) rotate(-179.48)"/><path class="cls-4" d="M161.68,255.75l.03,.15,6.59,33.82c.28,1.41,1.83,2.47,3.66,2.48l31.07,.28c1.83,.02,3.4-1.01,3.7-2.42l7.21-33.97,.03-.13c.27-1.29-.58-2.49-1.96-3.06-.03-.01-.06-.03-.1-.04-.49-.19-1.04-.29-1.63-.3h-.3l-44.44-.15h-.18s-.06,0-.09,0c-.59,0-1.14,.12-1.62,.32-.03,0-.05,.02-.07,.03-1.33,.56-2.15,1.72-1.9,2.98Z"/><path class="cls-7" d="M161.68,255.75l.03,.15c.49,0,1.05,0,1.69,0,5.18,0,6.58,4.12,6.58,4.12l-.93,5.5s-.27,2.93,2.57,3.29c2.55,.31,3.47-2.48,3.63-3.08l-.29,3.07s.7,2.7,2.93,3.06c2.22,.34,3.09-2.59,3.09-2.59l.93-7.57c.03,.4,.26,2.75,2.18,3.93,2.1,1.29,3.34-1.05,3.34-1.05,0,0,.35-1.29,1.45-4.8,1.1-3.52,7.84-3.76,7.84-3.76l17.19,.09,.03-.13c.27-1.29-.58-2.49-1.96-3.06-.03-.01-.06-.03-.1-.04-.02-.18-.05-.35-.07-.52-.01-.09-.03-.18-.05-.26-.16-.02-.32-.03-.48-.03h-1.48c.06,.17,.11,.34,.16,.52l-44.44-.15c.05-.17,.1-.34,.16-.5h-.41c-.54,0-1.07,.08-1.56,.23-.03,.2-.06,.39-.08,.59-.03,0-.05,.02-.07,.03-1.33,.56-2.15,1.72-1.9,2.98Z"/></g></g></svg>